<svg xmlns="http://www.w3.org/2000/svg" version="1.0" width="4167.000000pt" height="4167.000000pt" viewBox="0 0 4167.000000 4167.000000" preserveAspectRatio="xMidYMid meet">

<g transform="translate(0.000000,4167.000000) scale(0.100000,-0.100000)" fill="#ab8957" stroke="none">
<path d="M12870 35697 c-144 -33 -241 -117 -320 -280 -57 -116 -64 -144 -255 -962 -215 -921 -398 -1686 -985 -4115 -330 -1366 -334 -1381 -429 -1926 -77 -440 -114 -623 -166 -819 -77 -296 -126 -416 -359 -879 -270 -536 -455 -954 -641 -1451 -441 -1175 -682 -2286 -767 -3525 -17 -244 -17 -1087 0 -1330 93 -1357 384 -2624 894 -3889 154 -383 397 -898 589 -1246 891 -1621 2155 -2990 3769 -4081 107 -72 290 -193 407 -267 245 -156 278 -181 338 -261 101 -131 103 -229 10 -631 -100 -438 -188 -849 -365 -1725 -88 -437 -162 -801 -163 -809 -1 -10 111 -39 453 -117 250 -57 456 -101 458 -99 3 2 42 226 88 497 47 271 185 1076 309 1788 476 2748 670 3915 859 5180 99 657 116 837 116 1225 0 1092 -285 2220 -867 3435 -140 291 -261 502 -458 800 -318 480 -670 909 -1285 1565 -226 241 -340 367 -496 550 -831 976 -1416 1999 -1725 3015 -266 875 -353 1780 -259 2700 103 1001 473 2642 1574 6973 l155 609 -37 15 c-127 53 -344 82 -442 60z" fill="#ab8957"/>
<path d="M17133 35700 c-168 -18 -264 -87 -286 -205 -8 -41 -16 -2482 -19 -5465 -1 -2375 -1 -2469 18 -2587 l19 -123 373 0 374 0 -6 4038 c-4 2785 -9 4051 -16 4082 -32 135 -96 213 -202 244 -60 18 -170 25 -255 16z" fill="#ab8957"/>
<path d="M21670 35691 c-77 -17 -228 -59 -285 -81 l-22 -9 38 -188 c364 -1796 894 -4372 1104 -5368 160 -755 193 -926 230 -1160 227 -1469 132 -2816 -289 -4060 -275 -815 -677 -1567 -1232 -2305 -254 -338 -464 -582 -804 -939 -224 -235 -356 -382 -488 -544 -615 -758 -1096 -1649 -1447 -2679 -390 -1143 -547 -2336 -460 -3494 52 -692 160 -1260 411 -2167 619 -2237 1448 -3874 2629 -5193 152 -169 480 -499 617 -620 737 -649 1494 -1000 2318 -1074 167 -15 472 -12 656 5 872 83 1647 428 2400 1069 164 140 564 539 721 721 549 633 1045 1337 1447 2054 744 1325 1265 2785 1605 4499 91 457 126 557 321 917 813 1499 1308 2954 1494 4395 198 1530 110 3043 -264 4525 -609 2414 -1936 4538 -3841 6147 -434 366 -940 731 -1429 1031 -320 196 -349 216 -422 285 -111 105 -158 231 -143 387 3 39 49 251 101 472 104 445 263 1161 378 1703 41 195 134 632 205 971 72 340 131 621 131 627 0 13 -186 61 -290 74 -214 27 -374 -51 -467 -228 -51 -98 -79 -202 -157 -584 -107 -522 -203 -975 -386 -1817 -383 -1759 -480 -2214 -624 -2938 -331 -1664 -395 -2188 -383 -3120 5 -423 16 -598 57 -935 172 -1403 699 -2700 1567 -3855 315 -419 520 -651 1033 -1170 212 -214 433 -444 490 -510 1087 -1244 1713 -2707 1886 -4405 21 -210 30 -849 15 -1090 -73 -1160 -384 -2310 -1041 -3840 -469 -1093 -976 -1946 -1600 -2693 -227 -271 -567 -624 -820 -850 -600 -535 -1223 -861 -1850 -968 -159 -27 -517 -37 -683 -20 -1062 114 -2079 867 -3079 2281 -441 624 -860 1396 -1198 2210 -321 770 -652 1836 -800 2570 -237 1180 -250 2281 -39 3344 270 1365 916 2685 1853 3786 102 119 259 292 442 485 1316 1390 2099 2954 2319 4635 45 350 59 568 59 975 1 519 -18 741 -119 1450 -174 1220 -381 2286 -925 4775 -171 781 -300 1383 -374 1745 -68 329 -82 388 -113 490 -81 260 -196 330 -453 276z" fill="#ab8957"/>
<path d="M19188 35681 c-116 -25 -188 -50 -188 -64 0 -15 672 -8341 674 -8344 2 -3 749 77 754 81 5 6 -15 499 -29 681 -10 145 -95 1094 -224 2525 -165 1825 -281 3175 -360 4180 -37 470 -52 593 -87 695 -39 118 -105 197 -197 238 -66 30 -226 33 -343 8z" fill="#ab8957"/>
<path d="M14706 35608 c-3 -35 -166 -1890 -361 -4123 -195 -2233 -356 -4076 -358 -4096 l-5 -35 392 -46 c215 -25 392 -45 392 -44 1 0 153 1878 338 4171 185 2294 338 4185 340 4203 l5 32 -368 0 -369 0 -6 -62z" fill="#ab8957"/>
<path d="M28416 32618 c-172 -271 -334 -525 -339 -535 -5 -7 56 -56 165 -135 517 -368 992 -751 1460 -1175 204 -185 660 -638 848 -843 1560 -1699 2586 -3687 3094 -5995 311 -1411 399 -2829 260 -4185 -203 -1995 -887 -3927 -2049 -5792 l-123 -197 321 -224 c177 -124 326 -222 331 -219 14 8 346 515 453 692 710 1176 1236 2466 1553 3808 183 772 290 1506 351 2387 17 250 23 1111 10 1405 -124 2771 -1008 5365 -2577 7560 -427 599 -858 1105 -1403 1651 -524 524 -988 921 -1576 1350 -165 120 -662 457 -717 485 -28 14 -28 14 -62 -38z" fill="#ab8957"/>
<path d="M8947 28303 c-1156 -1957 -1822 -3977 -1996 -6053 -35 -409 -44 -652 -44 -1110 0 -461 9 -702 44 -1120 122 -1493 491 -3034 1051 -4390 257 -623 635 -1363 976 -1913 1002 -1612 2318 -2980 4011 -4166 96 -67 178 -120 182 -119 10 3 469 678 468 687 0 3 -68 53 -151 111 -333 231 -817 606 -1148 890 -2247 1929 -3673 4312 -4305 7194 -278 1268 -373 2548 -280 3786 148 1971 760 3890 1842 5774 94 163 112 201 101 211 -13 13 -635 395 -642 395 -2 0 -51 -80 -109 -177z" fill="#ab8957"/>
<path d="M21332 18171 c-497 -1029 -675 -2404 -507 -3911 200 -1786 865 -3520 1767 -4605 45 -55 152 -171 236 -257 l154 -157 271 245 c150 135 272 251 271 257 -1 7 -46 75 -101 152 -594 834 -1070 1742 -1362 2599 -240 703 -373 1338 -438 2086 -25 289 -25 1019 0 1310 56 654 174 1306 343 1897 30 105 34 127 23 138 -8 7 -141 102 -295 212 l-282 201 -80 -167z" fill="#ab8957"/>
</g>
</svg>